<?xml version="1.0" standalone="no"?>
<!DOCTYPE svg PUBLIC "-//W3C//DTD SVG 20010904//EN"
 "http://www.w3.org/TR/2001/REC-SVG-20010904/DTD/svg10.dtd">
<svg version="1.0" xmlns="http://www.w3.org/2000/svg"
 width="1024.000000pt" height="1024.000000pt" viewBox="0 0 1024.000000 1024.000000"
 preserveAspectRatio="xMidYMid meet">

<g transform="translate(0.000000,1024.000000) scale(0.100000,-0.100000)"
fill="#000000" stroke="none">
<path d="M4725 6975 c-5 -2 -22 -6 -37 -9 -37 -8 -98 -63 -114 -103 -11 -26
-14 -138 -14 -553 l0 -520 1113 2 1113 3 42 28 c71 46 105 140 82 225 -12 43
-46 80 -429 460 -229 227 -436 425 -461 440 l-45 27 -620 2 c-341 1 -624 0
-630 -2z"/>
<path d="M3900 6340 l-535 -539 160 -6 c88 -4 331 -5 540 -3 l380 3 2 523 c1
288 -1 532 -5 542 -6 17 -94 -67 -542 -520z"/>
<path d="M3310 5160 c0 -286 3 -520 6 -520 9 0 1034 1023 1034 1032 0 5 -234
8 -520 8 l-520 0 0 -520z"/>
<path d="M3920 5083 l-515 -518 514 -3 c283 -1 517 0 520 4 7 7 8 811 1 942
l-5 93 -515 -518z"/>
<path d="M3895 3900 c364 -364 542 -535 547 -527 8 12 8 1016 0 1050 -4 16
-38 17 -546 17 l-541 0 540 -540z"/>
<path d="M4730 4324 c63 -63 330 -328 594 -587 l478 -472 57 1 c62 1 147 30
209 72 69 46 808 778 828 819 44 91 10 211 -72 259 l-41 24 -1084 0 -1084 0
115 -116z"/>
<path d="M4560 3872 c0 -301 4 -470 11 -489 13 -35 54 -79 94 -101 27 -15 84
-17 498 -20 282 -2 467 1 467 6 0 5 -239 245 -530 533 -292 287 -532 525 -535
527 -3 3 -5 -202 -5 -456z"/>
</g>
</svg>
